              A Few Good Men 1992 BluRay 1080p DTS x264 dxva-EuReKA.mkv
 
http://www.imdb.com/title/tt0104257/

Genres:Crime, Drama, Mystery, Thriller

Rated R for language

Storyline
In this dramatic courtroom thriller, Lt. Daniel Kaffee, a Navy lawyer who has never seen the inside of the courtroom, defends two stubborn Marines who have been accused of murdering a colleague. Kaffee is known as being lazy and had arranged for a plea bargain. Downey's Aunt Ginny appoints Cmdr. Galloway to represent him. Also on the legal staff is Lt. Sam Weinberg. The team rounds up many facts and Kaffee is discovering that he is really cut out for trial work. The defense is originally based upon the fact that PFC Santiago, the victim, was given a "CODE RED". Santiago was basically a screw-up. At Gitmo, screw-ups aren't tolerated. Especially by Col. Nathan Jessup. In Cuba, Jessup and two senior officers try to give all the help they can, but Kaffee knows something's fishy. In the conclusion of the film, the fireworks are set off by a confrontation between Jessup and Kaffee. Written by Matt Curtolo <curt@epix.net>   
 
Cast
Cast overview, first billed only: 
  Tom Cruise  ...  Lt. Daniel Kaffee  
  Jack Nicholson  ...  Col. Nathan R. Jessep  
  Demi Moore  ...  Lt. Cdr. JoAnne Galloway  
  Kevin Bacon  ...  Capt. Jack Ross  
  Kiefer Sutherland  ...  Lt. Jonathan Kendrick  
  Kevin Pollak  ...  Lt. Sam Weinberg  
  James Marshall  ...  Pfc. Louden Downey  
  J.T. Walsh  ...  Lt. Col. Matthew Andrew Markinson  
  Christopher Guest  ...  Dr. Stone  
  J.A. Preston  ...  Judge Julius Alexander Randolph  
  Matt Craven  ...  Lt. Dave Spradling  
  Wolfgang Bodison  ...  Lance Cpl. Harold W. Dawson  
  Xander Berkeley  ...  Capt. Whitaker  
  John M. Jackson  ...  Capt. West  
  Noah Wyle  ...  Cpl. Jeffrey Barnes 


Format                           : Matroska
File size                        : 8.95 GiB
Duration                         : 2h 18mn
Overall bit rate                 : 9 284 Kbps
Encoded date                     : UTC 2009-07-29 18:34:06
Writing application              : mkvmerge v2.8.0 ('The Tree') built on May  9 2009 18:02:06
Writing library                  : libebml v0.7.7 + libmatroska v0.8.1

[img]http://torrent-stats.info/d829/104b883b6.png[/img]


Video
ID                               : 1
Format                           : AVC
Format/Info                      : Advanced Video Codec
Format profile                   : High@L4.1
Format settings, CABAC           : Yes
Format settings, ReFrames        : 4 frames
Muxing mode                      : Container profile=Unknown@4.1
Codec ID                         : V_MPEG4/ISO/AVC
Duration                         : 2h 17mn
Bit rate                         : 7 588 Kbps
Width                            : 1 920 pixels
Height                           : 816 pixels
Display aspect ratio             : 2.35
Frame rate                       : 23.976 fps
Resolution                       : 24 bits
Colorimetry                      : 4:2:0
Scan type                        : Progressive
Bits/(Pixel*Frame)               : 0.202
Stream size                      : 7.31 GiB (82%)
Title                            : x264 - crf encode
Writing library                  : x264 core 68 r1183M f21daff
Encoding settings                : cabac=1 / ref=4 / deblock=1:-2:-2 / analyse=0x3:0x113 / me=umh / subme=9 / psy_rd=1.0:0.0 / mixed_ref=1 / me_range=24 / chroma_me=1 / trellis=1 / 8x8dct=1 / cqm=0 / deadzone=21,11 / chroma_qp_offset=-2 / threads=6 / nr=0 / decimate=1 / mbaff=0 / bframes=5 / b_pyramid=1 / b_adapt=1 / b_bias=0 / direct=2 / wpredb=1 / keyint=250 / keyint_min=25 / scenecut=40 / rc=crf / crf=21.0 / qcomp=0.70 / qpmin=10 / qpmax=51 / qpstep=4 / vbv_maxrate=50000 / vbv_bufsize=50000 / ip_ratio=1.40 / pb_ratio=1.30 / aq=1:0.80
Language                         : English

Audio
ID                               : 2
Format                           : DTS
Format/Info                      : Digital Theater Systems
Codec ID                         : A_DTS
Duration                         : 2h 18mn
Bit rate mode                    : Constant
Bit rate                         : 1 510 Kbps
Channel(s)                       : 6 channels
Channel positions                : Front: L C R, Surround: L R, LFE
Sampling rate                    : 48.0 KHz
Resolution                       : 24 bits
Stream size                      : 1.46 GiB (16%)
Title                            : DTS - 1536 kbit/sec
Language                         : English

Text #1
ID                               : 3
Format                           : UTF-8
Codec ID                         : S_TEXT/UTF8
Codec ID/Info                    : UTF-8 Plain Text
Language                         : English

Text #2
ID                               : 4
Format                           : UTF-8
Codec ID                         : S_TEXT/UTF8
Codec ID/Info                    : UTF-8 Plain Text
Language                         : Dutch

Menu & 16 Chapters 
http://www.imagebam.com/image/dd57c4121301248 
http://www.imagebam.com/image/9ac2e3121301255 
http://www.imagebam.com/image/ffb509121301266 
http://www.imagebam.com/image/bbaa86121301279 
http://www.imagebam.com/image/38cf85121301288 
http://www.imagebam.com/image/e6b23d121301297